<svg xmlns="http://www.w3.org/2000/svg" viewBox="0 0 512 512">
  <defs>
    <linearGradient id="g" x1="70" x2="440" y1="80" y2="450" gradientUnits="userSpaceOnUse">
      <stop stop-color="#e07ba6"/>
      <stop offset="0.55" stop-color="#d98cc9"/>
      <stop offset="1" stop-color="#8fbdad"/>
    </linearGradient>
  </defs>
  <rect width="512" height="512" rx="112" fill="url(#g)"/>
  <circle cx="156" cy="160" r="34" fill="#fff7fb" opacity=".92"/>
  <circle cx="356" cy="164" r="34" fill="#fff7fb" opacity=".92"/>
  <path fill="#fff" d="M132 236c0-24 20-44 44-44h160c24 0 44 20 44 44v116c0 24-20 44-44 44H176c-24 0-44-20-44-44V236Zm58 34h132v-34H190v34Zm0 64h84v-34h-84v34Z"/>
  <path fill="#4a2f3e" opacity=".72" d="M197 116h118v38H197z"/>
</svg>